<svg version="1" xmlns="http://www.w3.org/2000/svg" width="682.667" height="682.667" viewBox="0 0 512.000000 512.000000"><path d="M229.5 23.2c-51.6 5.8-102 30.2-139 67.3-91.9 92.1-91.9 240.7.1 332 18.5 18.4 38 32.3 61.9 44 34.2 16.9 64.9 23.9 104 23.9 38.2 0 68.9-7.1 103-23.9 54.4-26.7 96-72.9 116.9-129.8 23.2-62.9 17.5-134.9-15.5-194.2-37-66.7-104.2-111.2-180.1-119.4-11.4-1.3-39.9-1.2-51.3.1zM146 153.5v55.6l15.3-.3 15.2-.3.2-54c.2-29.7.3-54.6.3-55.3 0-1 3.5-1.2 15.8-1l15.7.3.3 55.2.2 55.3h31l.2-55.3.3-55.2h31v60c0 67.1.1 65.8-7.3 80-4.4 8.4-16.2 20.8-24.2 25.3-5.3 3-16.6 6.6-24.2 7.7l-3.8.6V414h-39v-71c0-39.1-.1-71-.2-71-17.7-2.5-29.4-7.7-39.6-17.8-7.7-7.6-13-15.7-16.4-25.2l-2.3-6.5-.3-62.3-.3-62.2H146v55.5zM398 256v158h-39V288h-40.1l.3-68.3c.3-60.4.5-68.7 1.9-72.5 8.2-21.1 35.5-42.8 59.4-47.1 8.5-1.5 10.6-1.8 14.3-2l3.2-.1v158z"/></svg>